<?xml version="1.0"?>
<svg viewBox="0 0 400 220" xmlns="http://www.w3.org/2000/svg">
    <defs>
      <linearGradient id="mAmBg" x1="0" y1="0" x2="0" y2="1"><stop offset="0%" stop-color="#1c2533"></stop><stop offset="100%" stop-color="#0c1320"></stop></linearGradient>
    </defs>
    <rect width="400" height="220" fill="url(#mAmBg)"></rect>
    
    <rect x="0" y="0" width="400" height="26" fill="#0a0a0f"></rect>
    
    <path d="M 14 13 C 14 10 17 8 19 10 C 21 12 22 14 24 14 C 26 14 27 12 29 10 C 31 8 34 10 34 13 C 34 16 31 18 29 16 C 27 14 26 12 24 12 C 22 12 21 14 19 16 C 17 18 14 16 14 13 Z" fill="url(#metaG)"></path>
    <defs><linearGradient id="metaG" x1="0" y1="0" x2="1" y2="0"><stop offset="0%" stop-color="#0064e0"></stop><stop offset="100%" stop-color="#0080ff"></stop></linearGradient></defs>
    <text x="42" y="17" font-family="Helvetica, Arial, sans-serif" font-size="9" font-weight="700" fill="#fff">Ads Manager</text>
    <rect x="320" y="7" width="70" height="13" rx="2" fill="#1865f2"></rect>
    <text x="355" y="16" font-family="Helvetica, sans-serif" font-size="7" font-weight="700" fill="#fff" text-anchor="middle">+ Create</text>
    
    <rect x="14" y="36" width="86" height="44" rx="6" fill="#1a2235" stroke="#2c3a55"></rect>
    <text x="22" y="50" font-family="monospace" font-size="6.5" fill="#7c8aa0" letter-spacing="0.5">SPEND · 30D</text>
    <text x="22" y="68" font-family="monospace" font-size="13" font-weight="700" fill="#fff">$184,302</text>
    <text x="22" y="76" font-family="monospace" font-size="6" fill="#4fdfb5">▲ 12.4%</text>
    <rect x="106" y="36" width="86" height="44" rx="6" fill="#1a2235" stroke="#2c3a55"></rect>
    <text x="114" y="50" font-family="monospace" font-size="6.5" fill="#7c8aa0" letter-spacing="0.5">PURCHASES</text>
    <text x="114" y="68" font-family="monospace" font-size="13" font-weight="700" fill="#fff">4,218</text>
    <text x="114" y="76" font-family="monospace" font-size="6" fill="#4fdfb5">▲ 28.1%</text>
    <rect x="198" y="36" width="86" height="44" rx="6" fill="#1a2235" stroke="#2c3a55"></rect>
    <text x="206" y="50" font-family="monospace" font-size="6.5" fill="#7c8aa0" letter-spacing="0.5">ROAS</text>
    <text x="206" y="68" font-family="monospace" font-size="13" font-weight="700" fill="#4fdfb5">5.42×</text>
    <text x="206" y="76" font-family="monospace" font-size="6" fill="#4fdfb5">▲ 0.81</text>
    <rect x="290" y="36" width="96" height="44" rx="6" fill="#1a2235" stroke="#2c3a55"></rect>
    <text x="298" y="50" font-family="monospace" font-size="6.5" fill="#7c8aa0" letter-spacing="0.5">CPA · BLENDED</text>
    <text x="298" y="68" font-family="monospace" font-size="13" font-weight="700" fill="#fff">$43.71</text>
    <text x="298" y="76" font-family="monospace" font-size="6" fill="#ff7676">▼ 9.2%</text>
    
    <rect x="14" y="88" width="372" height="120" rx="6" fill="#141b29" stroke="#2c3a55"></rect>
    <text x="22" y="102" font-family="monospace" font-size="7" fill="#7c8aa0" letter-spacing="1.5">CAMPAIGN</text>
    <text x="200" y="102" font-family="monospace" font-size="7" fill="#7c8aa0" letter-spacing="1.5">STATUS</text>
    <text x="252" y="102" font-family="monospace" font-size="7" fill="#7c8aa0" letter-spacing="1.5">SPEND</text>
    <text x="306" y="102" font-family="monospace" font-size="7" fill="#7c8aa0" letter-spacing="1.5">ROAS</text>
    <text x="348" y="102" font-family="monospace" font-size="7" fill="#7c8aa0" letter-spacing="1.5">CHANGE</text>
    <line x1="20" y1="108" x2="380" y2="108" stroke="#2c3a55" stroke-width="0.5"></line>
    
    <circle cx="26" cy="121" r="2.5" fill="#4fdfb5"></circle>
    <text x="34" y="123" font-family="Helvetica, sans-serif" font-size="8" font-weight="600" fill="#fff">[ASC] DTC · Prospecting · BR</text>
    <rect x="200" y="117" width="38" height="11" rx="5" fill="#4fdfb5" opacity="0.15"></rect>
    <text x="219" y="125" font-family="monospace" font-size="6" font-weight="700" fill="#4fdfb5" text-anchor="middle">ACTIVE</text>
    <text x="252" y="123" font-family="monospace" font-size="8" fill="#fff">$48,210</text>
    <text x="306" y="123" font-family="monospace" font-size="8" font-weight="700" fill="#4fdfb5">6.21×</text>
    <text x="348" y="123" font-family="monospace" font-size="7" fill="#4fdfb5">▲ 0.92</text>
    <line x1="20" y1="130" x2="380" y2="130" stroke="#2c3a55" stroke-width="0.4"></line>
    
    <circle cx="26" cy="143" r="2.5" fill="#4fdfb5"></circle>
    <text x="34" y="145" font-family="Helvetica, sans-serif" font-size="8" font-weight="600" fill="#fff">Retargeting · 30D View Carts</text>
    <rect x="200" y="139" width="38" height="11" rx="5" fill="#4fdfb5" opacity="0.15"></rect>
    <text x="219" y="147" font-family="monospace" font-size="6" font-weight="700" fill="#4fdfb5" text-anchor="middle">ACTIVE</text>
    <text x="252" y="145" font-family="monospace" font-size="8" fill="#fff">$22,450</text>
    <text x="306" y="145" font-family="monospace" font-size="8" font-weight="700" fill="#4fdfb5">9.85×</text>
    <text x="348" y="145" font-family="monospace" font-size="7" fill="#4fdfb5">▲ 1.42</text>
    <line x1="20" y1="152" x2="380" y2="152" stroke="#2c3a55" stroke-width="0.4"></line>
    
    <circle cx="26" cy="165" r="2.5" fill="#4fdfb5"></circle>
    <text x="34" y="167" font-family="Helvetica, sans-serif" font-size="8" font-weight="600" fill="#fff">Creative Test · Hooks v.12</text>
    <rect x="200" y="161" width="38" height="11" rx="5" fill="#4fdfb5" opacity="0.15"></rect>
    <text x="219" y="169" font-family="monospace" font-size="6" font-weight="700" fill="#4fdfb5" text-anchor="middle">ACTIVE</text>
    <text x="252" y="167" font-family="monospace" font-size="8" fill="#fff">$8,910</text>
    <text x="306" y="167" font-family="monospace" font-size="8" font-weight="700" fill="#4fdfb5">3.42×</text>
    <text x="348" y="167" font-family="monospace" font-size="7" fill="#4fdfb5">▲ 0.30</text>
    <line x1="20" y1="174" x2="380" y2="174" stroke="#2c3a55" stroke-width="0.4"></line>
    
    <circle cx="26" cy="187" r="2.5" fill="#ff9a3c"></circle>
    <text x="34" y="189" font-family="Helvetica, sans-serif" font-size="8" font-weight="600" fill="#fff">LAL 1% · Past Buyers</text>
    <rect x="200" y="183" width="38" height="11" rx="5" fill="#ff9a3c" opacity="0.18"></rect>
    <text x="219" y="191" font-family="monospace" font-size="6" font-weight="700" fill="#ff9a3c" text-anchor="middle">LEARN</text>
    <text x="252" y="189" font-family="monospace" font-size="8" fill="#fff">$4,180</text>
    <text x="306" y="189" font-family="monospace" font-size="8" font-weight="700" fill="#fff">2.10×</text>
    <text x="348" y="189" font-family="monospace" font-size="7" fill="#ff7676">▼ 0.18</text>
  </svg>